HIERARCHY
ROOT SpineBase
{
  OFFSET 0.000000 0.000000 0.000000
  CHANNELS 6 Xposition Yposition Zposition Zrotation Xrotation Yrotation
  JOINT SpineMid
  {
    OFFSET 0.000000 27.649055 0.000000
    CHANNELS 3 Zrotation Xrotation Yrotation
    JOINT SpineShoulder
    {
      OFFSET -0.071788 20.557200 -0.436753
      CHANNELS 3 Zrotation Xrotation Yrotation
      JOINT Neck
      {
        OFFSET -0.013372 6.843092 -0.453280
        CHANNELS 3 Zrotation Xrotation Yrotation
        JOINT Head
        {
          OFFSET -4.779629 10.621428 2.903865
          CHANNELS 3 Zrotation Xrotation Yrotation
          End Site
          {
            OFFSET 0 0 0
          }
        }
      }
      JOINT ShoulderLeft
      {
        OFFSET -15.544237 -7.949017 2.861434
        CHANNELS 3 Zrotation Xrotation Yrotation
        JOINT ElbowLeft
        {
          OFFSET 0.231100 -23.036217 2.544563
          CHANNELS 3 Zrotation Xrotation Yrotation
          JOINT WristLeft
          {
            OFFSET -0.956612 -23.329260 -3.808818
            CHANNELS 3 Zrotation Xrotation Yrotation
            JOINT HandLeft
            {
              OFFSET 0.996214 -3.005090 -0.629314
              CHANNELS 3 Zrotation Xrotation Yrotation
              JOINT HandTipLeft
              {
                OFFSET 2.840593 -7.019796 -0.869815
                CHANNELS 3 Zrotation Xrotation Yrotation
                End Site
                {
                  OFFSET 0 0 0
                }
              }
              JOINT ThumbLeft
              {
                OFFSET 2.648654 1.348691 -4.158753
                CHANNELS 3 Zrotation Xrotation Yrotation
                End Site
                {
                  OFFSET 0 0 0
                }
              }
            }
          }
        }
      }
      JOINT ShoulderRight
      {
        OFFSET 9.732812 -2.038185 -6.846962
        CHANNELS 3 Zrotation Xrotation Yrotation
        JOINT ElbowRight
        {
          OFFSET -0.692752 -12.131839 -16.777158
          CHANNELS 3 Zrotation Xrotation Yrotation
          JOINT WristRight
          {
            OFFSET -15.309767 14.981079 -10.476430
            CHANNELS 3 Zrotation Xrotation Yrotation
            JOINT HandRight
            {
              OFFSET -3.322669 5.112132 -1.388798
              CHANNELS 3 Zrotation Xrotation Yrotation
              JOINT HandTipRight
              {
                OFFSET -2.289770 4.976451 -0.795316
                CHANNELS 3 Zrotation Xrotation Yrotation
                End Site
                {
                  OFFSET 0 0 0
                }
              }
              JOINT ThumbRight
              {
                OFFSET -2.266941 -2.303063 -0.721150
                CHANNELS 3 Zrotation Xrotation Yrotation
                End Site
                {
                  OFFSET 0 0 0
                }
              }
            }
          }
        }
      }
    }
  }
  JOINT HipLeft
  {
    OFFSET -5.344512 -0.249485 -0.017265
    CHANNELS 3 Zrotation Xrotation Yrotation
    JOINT KneeLeft
    {
      OFFSET 6.518116 -31.782519 -0.411995
      CHANNELS 3 Zrotation Xrotation Yrotation
      JOINT AnkleLeft
      {
        OFFSET 5.455327 -30.990394 4.912375
        CHANNELS 3 Zrotation Xrotation Yrotation
        JOINT FootLeft
        {
          OFFSET 0.070998 -3.057939 -8.624459
          CHANNELS 3 Zrotation Xrotation Yrotation
          End Site
          {
            OFFSET 0 0 0
          }
        }
      }
    }
  }
  JOINT HipRight
  {
    OFFSET 4.915764 1.910112 -6.076396
    CHANNELS 3 Zrotation Xrotation Yrotation
    JOINT KneeRight
    {
      OFFSET 9.079123 -26.763360 -1.096577
      CHANNELS 3 Zrotation Xrotation Yrotation
      JOINT AnkleRight
      {
        OFFSET 5.473600 -36.039126 4.987442
        CHANNELS 3 Zrotation Xrotation Yrotation
        JOINT FootRight
        {
          OFFSET -5.654116 -7.256353 1.966632
          CHANNELS 3 Zrotation Xrotation Yrotation
          End Site
          {
            OFFSET 0 0 0
          }
        }
      }
    }
  }
}
MOTION
Frames: 14
Frame Time: 0.033333
26.563417 66.838619 364.092953 2.894093 2.045675 19.353310 -0.409110 -0.804311 -19.324409 0.105496 0.173428 0.127227 -2.884521 -1.314996 -0.226627 0.000000 0.000000 0.000000 -2.795457 -4.396389 -0.241883 0.218648 4.537946 -0.110717 -14.393018 -5.130797 1.092568 2.999812 -2.308842 -3.219318 0.000000 0.000000 0.000000 0.000000 0.000000 0.000000 -3.284622 62.455322 -1.774317 -25.078287 -67.623530 -37.146955 6.169884 4.011822 10.935736 0.540408 16.470091 9.681672 0.000000 0.000000 0.000000 0.000000 0.000000 0.000000 -1.368479 -3.035555 -19.655979 -2.616768 1.258331 0.322205 -3.973550 -8.068859 13.363600 0.000000 0.000000 0.000000 -0.147004 1.500940 -18.391175 -2.319602 -3.370708 -1.126060 5.751777 10.116177 -7.304214 0.000000 0.000000 0.000000
26.573805 66.830626 364.031669 2.919356 2.095833 19.378159 -0.370059 -0.833128 -19.347785 0.138291 0.157159 0.133202 -2.989621 -1.333908 -0.235322 0.000000 0.000000 0.000000 -2.730079 -4.150438 -0.221267 0.615536 5.208811 -0.298612 -15.883047 -8.507930 -0.081527 6.027381 1.155338 -2.281893 0.000000 0.000000 0.000000 0.000000 0.000000 0.000000 -3.334626 62.291519 -1.831123 -24.927186 -67.367405 -36.866151 6.036357 3.956425 10.891394 -0.185891 16.019743 9.531205 0.000000 0.000000 0.000000 0.000000 0.000000 0.000000 -1.420165 -3.124842 -19.692746 -2.624983 1.309138 0.334044 -3.752330 -4.943679 11.708267 0.000000 0.000000 0.000000 -0.164330 2.369767 -18.140091 -1.332431 -5.105439 -1.401728 3.365716 9.804585 -6.535282 0.000000 0.000000 0.000000
26.548246 66.822287 364.007766 2.896031 2.094446 19.389081 -0.299384 -0.858441 -19.355499 0.167911 0.142282 0.138070 -4.061073 -2.547623 -0.563512 0.000000 0.000000 0.000000 -2.712933 -3.879973 -0.209980 1.439244 6.154045 -0.583203 -18.275021 -11.636064 -1.077659 7.926046 5.331286 -0.964113 0.000000 0.000000 0.000000 0.000000 0.000000 0.000000 -3.314770 62.183719 -1.938126 -24.783470 -67.201472 -36.608243 5.962666 4.055275 10.956611 0.035214 15.693235 9.329161 0.000000 0.000000 0.000000 0.000000 0.000000 0.000000 -1.356506 -3.139428 -19.700635 -2.667075 1.303002 0.333694 -3.794316 -0.425877 10.770927 0.000000 0.000000 0.000000 -0.244325 2.202136 -18.205314 -1.180912 -4.924111 -1.316792 2.991384 9.542297 -6.358900 0.000000 0.000000 0.000000
26.537671 66.780832 363.986783 2.900089 2.084524 19.359084 -0.241682 -0.861947 -19.322986 0.185311 0.150116 0.141777 -4.567826 -3.042379 -0.693522 0.000000 0.000000 0.000000 -2.692325 -3.722664 -0.200111 1.426981 5.931684 -0.605608 -17.389922 -7.209971 1.049322 4.730444 1.740858 -1.453581 0.000000 0.000000 0.000000 0.000000 0.000000 0.000000 -3.337984 62.093748 -1.994652 -24.748992 -67.092303 -36.526854 5.887707 4.393413 11.214352 1.537746 15.487824 9.080124 0.000000 0.000000 0.000000 0.000000 0.000000 0.000000 -1.324639 -3.167345 -19.674431 -2.708909 1.328074 0.340504 -5.129415 6.083697 12.906599 0.000000 0.000000 0.000000 0.270375 3.282490 -17.823680 -1.020957 -6.415588 -1.679459 3.384712 5.351284 -2.346633 0.000000 0.000000 0.000000
26.579894 66.695220 363.971260 2.973008 2.068377 19.296618 -0.236014 -0.835974 -19.260035 0.215117 0.183645 0.146153 -4.923168 -3.444630 -0.813706 0.000000 0.000000 0.000000 -2.683072 -3.742866 -0.191872 1.244224 5.482242 -0.573463 -16.178800 -4.293528 2.185722 0.836317 -1.421127 -2.260848 0.000000 0.000000 0.000000 0.000000 0.000000 0.000000 -3.347309 62.048071 -2.091691 -24.771751 -67.105009 -36.526662 5.842096 4.859050 11.564428 2.124312 14.684535 8.551774 0.000000 0.000000 0.000000 0.000000 0.000000 0.000000 -1.439011 -3.186966 -19.628875 -2.677545 1.399831 0.356179 -4.943404 2.223614 13.319197 0.000000 0.000000 0.000000 0.006136 3.652055 -17.673690 -0.472976 -6.706756 -1.700673 3.430582 6.489578 -3.278731 0.000000 0.000000 0.000000
26.622314 66.669479 363.954545 3.030794 2.062669 19.242105 -0.248880 -0.826694 -19.205577 0.211617 0.191582 0.147492 -4.896852 -3.755412 -0.975833 0.000000 0.000000 0.000000 -2.593368 -3.809609 -0.175385 1.287579 5.704724 -0.634696 -17.406902 -3.016050 3.038832 1.102816 -2.353411 -2.788244 0.000000 0.000000 0.000000 0.000000 0.000000 0.000000 -3.259928 61.949155 -2.225440 -24.697616 -67.021598 -36.374577 5.905258 5.231886 11.842698 2.588527 14.395713 8.294988 0.000000 0.000000 0.000000 0.000000 0.000000 0.000000 -1.517315 -3.180352 -19.581330 -2.656275 1.424724 0.361336 -5.126375 2.429027 13.754521 0.000000 0.000000 0.000000 -0.532256 3.109462 -17.816743 -0.271989 -5.871850 -1.477004 3.568187 16.263443 -12.158522 0.000000 0.000000 0.000000
26.678113 66.630580 363.912195 3.053523 2.080319 19.095287 -0.296310 -0.786488 -19.062046 0.178453 0.209577 0.142911 -4.301255 -4.170894 -1.258706 0.000000 0.000000 0.000000 -2.475991 -3.941787 -0.163840 0.883177 5.240855 -0.527161 -16.637947 -2.013401 3.268996 -0.733290 -2.573790 -2.687685 0.000000 0.000000 0.000000 0.000000 0.000000 0.000000 -3.175503 61.790536 -2.238067 -24.690503 -66.894371 -36.349524 6.045117 5.162518 11.811518 4.282624 14.704410 8.386687 0.000000 0.000000 0.000000 0.000000 0.000000 0.000000 -1.601089 -3.257405 -19.452826 -2.617160 1.505791 0.378872 -6.003668 3.563552 15.746771 0.000000 0.000000 0.000000 -0.536065 3.347131 -17.592880 -0.285132 -6.180058 -1.578485 5.407256 24.628038 -20.165342 0.000000 0.000000 0.000000
26.721556 66.603304 363.887924 3.092412 2.056525 18.858086 -0.338426 -0.761777 -18.826335 0.155561 0.215100 0.140508 -3.771240 -4.173670 -1.369494 0.000000 0.000000 0.000000 -2.386543 -4.009038 -0.152662 -0.047005 4.264349 -0.280827 -14.257546 -1.380031 2.879233 -3.052461 -2.977339 -2.591555 0.000000 0.000000 0.000000 0.000000 0.000000 0.000000 -3.046608 61.730697 -2.337152 -24.647704 -66.786819 -36.213103 6.079262 5.301651 11.918797 4.744603 14.725689 8.349227 0.000000 0.000000 0.000000 0.000000 0.000000 0.000000 -1.590906 -3.278691 -19.222370 -2.658120 1.543919 0.388719 -5.290772 3.014723 14.039080 0.000000 0.000000 0.000000 0.068764 4.317738 -17.044359 -0.676188 -7.484572 -1.977420 7.861316 26.193755 -21.829039 0.000000 0.000000 0.000000
26.765149 66.584496 363.835048 3.169664 2.041120 18.808592 -0.338183 -0.768492 -18.775446 0.172351 0.194213 0.145732 -3.935059 -4.311541 -1.444423 0.000000 0.000000 0.000000 -2.410225 -3.999680 -0.148228 -0.872098 2.610553 -0.050399 -11.967026 0.294973 2.737067 -6.825036 -8.056196 -5.249285 0.000000 0.000000 0.000000 0.000000 0.000000 0.000000 -3.304980 61.684909 -2.160553 -24.714497 -66.557954 -36.327408 6.344901 5.016944 11.749543 5.052006 15.964542 8.936888 0.000000 0.000000 0.000000 0.000000 0.000000 0.000000 -1.579162 -3.299071 -19.177978 -2.846447 0.754581 0.239977 -3.572040 1.065100 10.495038 0.000000 0.000000 0.000000 -0.286158 3.346104 -17.315158 -1.168962 -6.360868 -1.737514 10.236956 30.591556 -26.911903 0.000000 0.000000 0.000000
26.806123 66.579341 363.759410 3.246768 2.024029 18.874746 -0.334694 -0.793533 -18.839342 0.186895 0.148290 0.151959 -4.274671 -4.256737 -1.411734 0.000000 0.000000 0.000000 -2.441960 -3.967875 -0.143792 -0.944294 2.665001 -0.055751 -10.226968 0.769172 2.542666 -7.540524 -8.914954 -5.411419 0.000000 0.000000 0.000000 0.000000 0.000000 0.000000 -3.592102 61.707121 -1.962076 -24.826471 -66.325403 -36.492948 6.605803 4.834128 11.663905 3.326409 17.179343 9.613504 0.000000 0.000000 0.000000 0.000000 0.000000 0.000000 -1.620308 -3.283354 -19.247947 -2.955816 0.690010 0.220511 -2.506354 -0.827174 8.040466 0.000000 0.000000 0.000000 -0.254372 3.692061 -17.287421 -1.212409 -6.840888 -1.877724 14.889190 41.036683 -40.719353 0.000000 0.000000 0.000000
26.843903 66.590961 363.673247 3.312231 2.009636 19.057059 -0.333423 -0.818400 -19.019560 0.192814 0.104563 0.157021 -4.752071 -4.145256 -1.312894 0.000000 0.000000 0.000000 -2.473860 -3.951802 -0.141069 -0.995811 2.730825 -0.059023 -9.738202 -0.660138 1.822703 -5.102782 -9.455758 -5.699050 0.000000 0.000000 0.000000 0.000000 0.000000 0.000000 -3.912874 61.744777 -1.705260 -24.957407 -66.108477 -36.710970 6.832627 5.020866 11.853420 2.939804 16.883804 9.414118 0.000000 0.000000 0.000000 0.000000 0.000000 0.000000 -1.666054 -3.273093 -19.435141 -3.042586 0.634628 0.204911 -2.118132 -1.571893 7.210995 0.000000 0.000000 0.000000 -0.976658 2.866842 -17.766765 -0.917986 -5.638104 -1.527615 18.864702 45.008823 -48.104768 0.000000 0.000000 0.000000
26.867137 66.601922 363.584247 3.361058 2.009142 19.324126 -0.305919 -0.836393 -19.284302 0.211235 0.084699 0.162728 -5.345993 -4.068292 -1.186884 0.000000 0.000000 0.000000 -2.517387 -3.922738 -0.139269 -1.881098 2.863422 0.105235 -9.358142 -3.915237 0.404817 -2.530999 -7.166284 -4.748177 0.000000 0.000000 0.000000 0.000000 0.000000 0.000000 -4.141677 61.734530 -1.569596 -25.038854 -65.963790 -36.842811 6.872543 5.077454 11.929208 1.314733 16.928907 9.519321 0.000000 0.000000 0.000000 0.000000 0.000000 0.000000 -1.754262 -3.250884 -19.706612 -3.021907 0.615407 0.200872 -2.454410 -1.082341 8.159427 0.000000 0.000000 0.000000 -1.338476 2.511930 -18.169593 -0.768082 -5.173407 -1.383213 18.453508 45.528628 -48.544373 0.000000 0.000000 0.000000
26.854900 66.613516 363.515595 3.357598 1.992379 19.651275 -0.256413 -0.853457 -19.608526 0.227554 0.063097 0.166983 -5.934407 -4.183188 -1.146652 0.000000 0.000000 0.000000 -2.548134 -3.873545 -0.137957 -1.095043 2.719952 -0.067856 -10.974615 -5.547713 -0.071608 -0.296832 -6.765257 -4.985843 0.000000 0.000000 0.000000 0.000000 0.000000 0.000000 -4.463988 61.780316 -1.298179 -25.162848 -65.853192 -37.091293 6.903884 5.239351 12.086054 2.386942 16.596347 9.266210 0.000000 0.000000 0.000000 0.000000 0.000000 0.000000 -1.737786 -3.190230 -20.024752 -3.038118 0.541998 0.185139 -3.441053 0.589509 10.726859 0.000000 0.000000 0.000000 -1.300882 2.528982 -18.497304 -0.792153 -5.283794 -1.400864 15.115379 42.289579 -42.384626 0.000000 0.000000 0.000000
26.891765 66.602572 363.421817 3.416075 2.037064 19.989385 -0.260594 -0.858557 -19.946881 0.224737 0.058350 0.169674 -6.406093 -4.310192 -1.106655 0.000000 0.000000 0.000000 -2.585341 -3.894912 -0.139576 -0.781007 4.187233 -0.205048 -13.132568 -6.665007 0.178379 0.559587 -6.510689 -5.211374 0.000000 0.000000 0.000000 0.000000 0.000000 0.000000 -4.523645 61.783029 -1.298766 -25.158167 -65.849590 -37.057387 6.706246 5.086086 11.963980 2.482651 16.940826 9.516017 0.000000 0.000000 0.000000 0.000000 0.000000 0.000000 -1.901763 -3.229301 -20.377816 -2.903374 0.524620 0.193529 -5.129739 3.152197 14.572321 0.000000 0.000000 0.000000 -1.312981 2.771024 -18.756338 -0.746908 -5.782445 -1.520741 11.419300 32.314797 -28.694987 0.000000 0.000000 0.000000
